<?xml version="1.0" encoding="utf-8"?>
<!-- Generator: Adobe Illustrator 21.1.0, SVG Export Plug-In . SVG Version: 6.00 Build 0)  -->
<svg version="1.1" id="Layer_1" xmlns="http://www.w3.org/2000/svg" xmlns:xlink="http://www.w3.org/1999/xlink" x="0px" y="0px"
	 viewBox="0 0 72.3 76" style="enable-background:new 0 0 72.3 76;" xml:space="preserve">
<style type="text/css">
	.st0{fill-rule:evenodd;clip-rule:evenodd;fill:#F09D2D;}
	.st1{fill:#2D2D2B;}
	.st2{fill-rule:evenodd;clip-rule:evenodd;fill:#2D2D2B;}
</style>
<polygon class="st0" points="46.7,75 46.7,47 22.6,33 22.6,61 "/>
<path class="st1" d="M17,34.5c0.7,0.4,0.9,1.2,0.5,1.9c-0.4,0.7-1.2,0.9-1.9,0.5c-2.1-1.2-4.3-2.5-6.4-3.7c-0.7-0.4-0.9-1.2-0.5-1.9
	c0.4-0.7,1.2-0.9,1.9-0.5C12.7,32,14.9,33.2,17,34.5 M12.5,40.1c0.7,0.4,0.9,1.2,0.5,1.9c-0.4,0.7-1.2,0.9-1.9,0.5L0.7,36.4
	c-0.7-0.4-0.9-1.2-0.5-1.9c0.4-0.7,1.2-0.9,1.9-0.5C5.6,36.1,9,38.1,12.5,40.1z M25.4,33c7.1,4.1,14.2,8.3,21.4,12.4
	C53.8,41.2,61,37.1,68.1,33c-6.9-4-13.9-8.1-20.8-12.1c-0.3-0.2-0.7-0.2-1,0C39.3,24.9,32.3,28.9,25.4,33z M48.1,47.8v24.8
	c6.9-4,13.9-8.1,20.8-12.1c0.3-0.2,0.5-0.5,0.5-0.9V35.4C62.3,39.5,55.2,43.6,48.1,47.8z M39.3,69.1V44.3l-3.3-1.9v24.8L39.3,69.1z
	 M42.1,45.9v24.8c1.1,0.6,2.2,1.3,3.3,1.9V47.8C44.3,47.1,43.2,46.5,42.1,45.9z M27.3,62.1V37.3L24,35.4v24.2c0,0.4,0.2,0.7,0.5,0.9
	C25.4,61,26.3,61.5,27.3,62.1z M30,38.9v24.8l3.3,1.9V40.8L30,38.9z M48.6,18.5c1.8,1.1,21.7,12.6,21.7,12.6
	c1.2,0.7,1.9,1.9,1.9,3.3v25.2c0,1.4-0.7,2.6-1.9,3.3c-7.2,4.2-14.5,8.4-21.7,12.6c-1.2,0.7-2.6,0.7-3.9,0
	c-7.2-4.2-14.4-8.4-21.6-12.6c-1.2-0.7-1.9-1.9-1.9-3.3v-8.8c-1.7-1.8-3.5-3.7-5.2-5.5c-0.8-0.8-0.4-2.3,0.8-2.4
	c1.5-0.2,2.9-0.3,4.4-0.5v-8.1c0-1.4,0.8-2.7,2-3.3c1.8-1,21.6-12.6,21.6-12.6C46,17.8,47.4,17.8,48.6,18.5z M63.7,43.6
	c1.1,0,2,0.9,2,2c0,1.1-0.9,2-2,2c-1.1,0-2-0.9-2-2C61.7,44.4,62.6,43.6,63.7,43.6z M64.1,52.8c0-0.8,0.6-1.4,1.4-1.4
	c0.8,0,1.4,0.6,1.4,1.4c0,2.1-0.9,4.3-2.4,6.1c-1.4,1.7-3.4,3-5.4,3.4c-1.3,0.2-2.7,0.1-3.9-0.4c-1.1-0.5-2.1-1.3-2.8-2.5
	c-0.4-0.7-0.1-1.5,0.6-1.9c0.7-0.4,1.5-0.1,1.9,0.6c0.3,0.6,0.8,1,1.4,1.3c0.7,0.3,1.6,0.4,2.5,0.2c1.3-0.2,2.7-1.1,3.7-2.4
	C63.4,55.8,64.1,54.2,64.1,52.8z M53.6,49.4c1.1,0,2,0.9,2,2c0,1.1-0.9,2-2,2c-1.1,0-2-0.9-2-2C51.6,50.3,52.5,49.4,53.6,49.4z
	 M17,51c0.7,0.4,0.9,1.2,0.5,1.9c-0.4,0.7-1.2,0.9-1.9,0.5L2.6,45.8c-0.7-0.4-0.9-1.2-0.5-1.9c0.4-0.7,1.2-0.9,1.9-0.5
	C8.3,45.9,12.7,48.4,17,51z"/>
<path class="st2" d="M47.3,35.8c-0.1,0.3-0.4,0.5-0.7,0.4c-0.3-0.1-0.5-0.4-0.4-0.7C48.8,24,51.4,12.5,54,1c0.2-0.7,0.8-1.1,1.5-0.9
	c0.4,0.1,0.8,0.2,1.3,0.3c0.7,0.2,1,0.9,0.8,1.6C54.2,13.2,50.7,24.5,47.3,35.8 M51.6,37c-0.2,0.3-0.5,0.4-0.8,0.2
	c-0.3-0.2-0.4-0.5-0.2-0.8C56,25.9,61.6,15.5,67,5.1c0.3-0.6,1.1-0.9,1.7-0.5c0.4,0.2,0.8,0.4,1.1,0.7c0.6,0.4,0.8,1.1,0.4,1.7
	C64,16.9,57.8,27,51.6,37z"/>
</svg>
