<?xml version="1.0" encoding="utf-8"?>
<!-- Generator: Adobe Illustrator 17.1.0, SVG Export Plug-In . SVG Version: 6.00 Build 0)  -->
<!DOCTYPE svg PUBLIC "-//W3C//DTD SVG 1.1//EN" "http://www.w3.org/Graphics/SVG/1.1/DTD/svg11.dtd" [
	<!ENTITY ns_extend "http://ns.adobe.com/Extensibility/1.0/">
	<!ENTITY ns_ai "http://ns.adobe.com/AdobeIllustrator/10.0/">
	<!ENTITY ns_graphs "http://ns.adobe.com/Graphs/1.0/">
	<!ENTITY ns_vars "http://ns.adobe.com/Variables/1.0/">
	<!ENTITY ns_imrep "http://ns.adobe.com/ImageReplacement/1.0/">
	<!ENTITY ns_sfw "http://ns.adobe.com/SaveForWeb/1.0/">
	<!ENTITY ns_custom "http://ns.adobe.com/GenericCustomNamespace/1.0/">
	<!ENTITY ns_adobe_xpath "http://ns.adobe.com/XPath/1.0/">
]>
<svg version="1.1" id="Layer_1" xmlnsX="&ns_extend;" xmlnsI="&ns_ai;" xmlnsGraph="&ns_graphs;"
	 xmlns="http://www.w3.org/2000/svg" xmlns:xlink="http://www.w3.org/1999/xlink" x="0px" y="0px" viewBox="0 0 11 7"
	 enable-background="new 0 0 11 7" xml:space="preserve">
<switch>
	<foreignObject requiredExtensions="&ns_ai;" x="0" y="0" width="1" height="1">
		<iPgfRef  xlink:href="#adobe_illustrator_pgf">
		</iPgfRef>
	</foreignObject>
	<g iExtraneous="self">
		<path fill="#737373" d="M10.7,0.5c-0.4-0.4-1.2-0.4-1.6,0L5.5,4.1L1.9,0.5c-0.4-0.4-1.2-0.4-1.6,0c-0.4,0.4-0.4,1.1,0,1.6l4.4,4.4
			c0.2,0.2,0.5,0.3,0.8,0.3c0.1,0,0.1,0,0.2,0c0.2,0,0.4-0.1,0.6-0.3c0,0,0,0,0,0l4.4-4.4C11.1,1.7,11.1,0.9,10.7,0.5z"/>
	</g>
</switch>

</svg>
