<svg id="Слой_1" data-name="Слой 1" xmlns="http://www.w3.org/2000/svg" viewBox="0 0 48.19 48.19">
  <defs>
    <style>
      .cls-1 {
        fill: #282828;
      }
    </style>
  </defs>
  <path class="cls-1" d="M37.93,2a8.31,8.31,0,0,1,8.31,8.31V37.93a8.31,8.31,0,0,1-8.31,8.31H10.26A8.31,8.31,0,0,1,2,37.93V10.26A8.31,8.31,0,0,1,10.26,2H37.93m0-1.95H10.26A10.27,10.27,0,0,0,0,10.26V37.93A10.27,10.27,0,0,0,10.26,48.19H37.93A10.27,10.27,0,0,0,48.19,37.93V10.26A10.27,10.27,0,0,0,37.93,0Z" transform="translate(0)"/>
  <path class="cls-1" d="M37.75,11.64a1.15,1.15,0,0,1,1.25,1,8.31,8.31,0,0,1-.27,2.48q-1.78,8.31-3.55,16.62c-.23,1.12-.47,2.24-.71,3.37a3,3,0,0,1-.31.81,1.2,1.2,0,0,1-1.07.66,1.89,1.89,0,0,1-.39,0,2.63,2.63,0,0,1-.89-.43c-2.15-1.57-4.3-3.14-6.44-4.73a.3.3,0,0,0-.45,0c-1.09,1.06-2.19,2.1-3.29,3.15a1.61,1.61,0,0,1-.94.48h-.1c-.09,0-.15,0-.14-.21.12-1.6.23-3.2.34-4.8,0-.57.09-1.14.13-1.72a.52.52,0,0,1,.19-.39L33.52,16.73c.08-.07.35-.4.3-.52s-.29-.12-.3-.12a1.36,1.36,0,0,0-.73.25l-8.91,5.59c-2.21,1.38-6.78,4.23-6.87,4.23s-4.5-1.38-6.67-2.06a2.27,2.27,0,0,1-.78-.38.67.67,0,0,1-.1-1.1,2.57,2.57,0,0,1,1-.63l5.81-2.24L37,11.8a4.51,4.51,0,0,1,.76-.16M36.29,10l-9,3.46-11.7,4.49L9.76,20.16A4.59,4.59,0,0,0,8,21.3a2.72,2.72,0,0,0-.75,2.05,2.67,2.67,0,0,0,1.08,1.9A4,4,0,0,0,9.76,26l.61.19L16.28,28a2.31,2.31,0,0,0,2-.27l1-.6a2.32,2.32,0,0,0-.29,1c0,.36,0,.72-.08,1.07l0,.62-.1,1.42-.24,3.38a2.07,2.07,0,0,0,.55,1.64,2,2,0,0,0,1.53.66l.39,0a3.63,3.63,0,0,0,2-1l1.26-1.21,1.05-1L28.35,36l2.3,1.69a4.67,4.67,0,0,0,1.56.74,3.79,3.79,0,0,0,.88.11,3.13,3.13,0,0,0,2.75-1.62,4.74,4.74,0,0,0,.54-1.39c.24-1.13.48-2.25.71-3.37l.8-3.75q1.38-6.44,2.75-12.87c0-.14.53-3.1-.14-4.3a2.8,2.8,0,0,0-2.75-1.51A13,13,0,0,0,36.29,10Z" transform="translate(0)"/>
</svg>
