<svg width="217" height="76" viewBox="0 0 217 76" fill="none" xmlns="http://www.w3.org/2000/svg">
<g clip-path="url(#clip0_1_11)">
<path fill-rule="evenodd" clip-rule="evenodd" d="M46.7 75V47L22.6 33V61L46.7 75Z" fill="#F09D2D"/>
<path d="M17 34.5C17.7 34.9 17.9 35.7 17.5 36.4C17.1 37.1 16.3 37.3 15.6 36.9C13.5 35.7 11.3 34.4 9.19999 33.2C8.49999 32.8 8.29999 32 8.69999 31.3C9.09999 30.6 9.89999 30.4 10.6 30.8C12.7 32 14.9 33.2 17 34.5ZM12.5 40.1C13.2 40.5 13.4 41.3 13 42C12.6 42.7 11.8 42.9 11.1 42.5L0.699991 36.4C-8.52346e-06 36 -0.200009 35.2 0.199991 34.5C0.599991 33.8 1.39999 33.6 2.09999 34C5.59999 36.1 8.99999 38.1 12.5 40.1ZM25.4 33C32.5 37.1 39.6 41.3 46.8 45.4C53.8 41.2 61 37.1 68.1 33C61.2 29 54.2 24.9 47.3 20.9C47 20.7 46.6 20.7 46.3 20.9C39.3 24.9 32.3 28.9 25.4 33ZM48.1 47.8V72.6C55 68.6 62 64.5 68.9 60.5C69.2 60.3 69.4 60 69.4 59.6V35.4C62.3 39.5 55.2 43.6 48.1 47.8ZM39.3 69.1V44.3L36 42.4V67.2L39.3 69.1ZM42.1 45.9V70.7C43.2 71.3 44.3 72 45.4 72.6V47.8C44.3 47.1 43.2 46.5 42.1 45.9ZM27.3 62.1V37.3L24 35.4V59.6C24 60 24.2 60.3 24.5 60.5C25.4 61 26.3 61.5 27.3 62.1ZM30 38.9V63.7L33.3 65.6V40.8L30 38.9ZM48.6 18.5C50.4 19.6 70.3 31.1 70.3 31.1C71.5 31.8 72.2 33 72.2 34.4V59.6C72.2 61 71.5 62.2 70.3 62.9C63.1 67.1 55.8 71.3 48.6 75.5C47.4 76.2 46 76.2 44.7 75.5C37.5 71.3 30.3 67.1 23.1 62.9C21.9 62.2 21.2 61 21.2 59.6V50.8C19.5 49 17.7 47.1 16 45.3C15.2 44.5 15.6 43 16.8 42.9C18.3 42.7 19.7 42.6 21.2 42.4V34.3C21.2 32.9 22 31.6 23.2 31C25 30 44.8 18.4 44.8 18.4C46 17.8 47.4 17.8 48.6 18.5ZM63.7 43.6C64.8 43.6 65.7 44.5 65.7 45.6C65.7 46.7 64.8 47.6 63.7 47.6C62.6 47.6 61.7 46.7 61.7 45.6C61.7 44.4 62.6 43.6 63.7 43.6ZM64.1 52.8C64.1 52 64.7 51.4 65.5 51.4C66.3 51.4 66.9 52 66.9 52.8C66.9 54.9 66 57.1 64.5 58.9C63.1 60.6 61.1 61.9 59.1 62.3C57.8 62.5 56.4 62.4 55.2 61.9C54.1 61.4 53.1 60.6 52.4 59.4C52 58.7 52.3 57.9 53 57.5C53.7 57.1 54.5 57.4 54.9 58.1C55.2 58.7 55.7 59.1 56.3 59.4C57 59.7 57.9 59.8 58.8 59.6C60.1 59.4 61.5 58.5 62.5 57.2C63.4 55.8 64.1 54.2 64.1 52.8ZM53.6 49.4C54.7 49.4 55.6 50.3 55.6 51.4C55.6 52.5 54.7 53.4 53.6 53.4C52.5 53.4 51.6 52.5 51.6 51.4C51.6 50.3 52.5 49.4 53.6 49.4ZM17 51C17.7 51.4 17.9 52.2 17.5 52.9C17.1 53.6 16.3 53.8 15.6 53.4L2.59999 45.8C1.89999 45.4 1.69999 44.6 2.09999 43.9C2.49999 43.2 3.29999 43 3.99999 43.4C8.29999 45.9 12.7 48.4 17 51Z" fill="#2D2D2B"/>
<path fill-rule="evenodd" clip-rule="evenodd" d="M47.3 35.8C47.2 36.1 46.9 36.3 46.6 36.2C46.3 36.1 46.1 35.8 46.2 35.5C48.8 24 51.4 12.5 54 0.999999C54.2 0.299999 54.8 -0.100001 55.5 0.099999C55.9 0.199999 56.3 0.299999 56.8 0.399999C57.5 0.599999 57.8 1.3 57.6 2C54.2 13.2 50.7 24.5 47.3 35.8ZM51.6 37C51.4 37.3 51.1 37.4 50.8 37.2C50.5 37 50.4 36.7 50.6 36.4C56 25.9 61.6 15.5 67 5.1C67.3 4.5 68.1 4.2 68.7 4.6C69.1 4.8 69.5 5 69.8 5.3C70.4 5.7 70.6 6.4 70.2 7C64 16.9 57.8 27 51.6 37Z" fill="#2D2D2B"/>
</g>
<g clip-path="url(#clip1_1_11)">
<path d="M92.1 72H90.1C90.4 71.5 90.5 70.8 90.5 70L90.6 68.2H92.1V72ZM97.6 72C96.9 72 96.5 71.6 96.5 71V69.2C96.5 68.6 96.9 68.2 97.6 68.2C98.3 68.2 98.7 68.6 98.7 69.2V71C98.6 71.7 98.3 72 97.6 72ZM97.6 73.1C99.1 73.1 99.9 72.2 99.9 71V69.2C99.9 68 99.1 67.1 97.6 67.1C96.1 67.1 95.3 68 95.3 69.2V71C95.2 72.2 96 73.1 97.6 73.1ZM101.3 71C101.3 72.2 102 73.2 103.5 73.2C104.1 73.2 105.3 73 105.3 72.4C105.3 72.2 105.1 71.9 104.7 71.9C104.6 71.9 104.5 71.9 104.4 72C104.1 72.1 103.9 72.2 103.6 72.2C102.8 72.2 102.5 71.8 102.5 71.1V69.5C102.5 68.8 102.8 68.4 103.6 68.4C104 68.4 104.2 68.5 104.4 68.6C104.5 68.6 104.6 68.6 104.7 68.6C105.1 68.6 105.3 68.4 105.3 68.1C105.3 67.4 104.1 67.3 103.5 67.3C102 67.3 101.3 68.2 101.3 69.5V71ZM109.1 68.4H110.1C110.4 68.4 110.7 68.2 110.7 67.8C110.7 67.5 110.4 67.2 110.1 67.2H106.8C106.5 67.2 106.2 67.4 106.2 67.8C106.2 68.1 106.5 68.4 106.8 68.4H107.8V72.6C107.8 72.9 108.1 73.2 108.4 73.2C108.7 73.2 109 72.9 109 72.6V68.4H109.1ZM114 70.5C114.3 70.5 114.7 70.5 115 70.6V71.6C114.6 71.9 114.3 72 113.9 72C113.3 72 113 71.7 113 71.3C113 70.9 113.2 70.5 114 70.5ZM115 69.7C114.7 69.6 114.3 69.6 114 69.6C112.6 69.6 111.9 70.2 111.9 71.3C111.9 72.4 112.5 73.1 113.8 73.1C114.4 73.1 114.9 72.9 115.4 72.5C115.6 72.9 115.9 73 116.3 73C116.7 73 117 72.8 117 72.5C117 72.3 116.9 72.1 116.7 72.1C116.5 72.1 116.4 72 116.4 71.7V69.4C116.4 67.9 115.8 67.1 114.2 67.1C113.3 67.1 112.4 67.3 112.4 67.9C112.4 68.1 112.5 68.4 112.9 68.4C113 68.4 113.1 68.4 113.2 68.3L113.4 68.2C113.6 68.1 113.8 68.1 114.1 68.1C114.8 68.1 115.2 68.4 115.2 69.1V69.7H115ZM119.5 68.2H120.4C121 68.2 121.3 68.4 121.3 68.9C121.3 69.2 121.2 69.6 120.4 69.6H119.5V68.2ZM121.4 71.3C121.4 71.8 121.1 72 120.5 72H119.5V70.5H120.4C121.3 70.6 121.4 70.9 121.4 71.3ZM122.5 68.9C122.5 68 121.8 67.3 120.4 67.3H118.9C118.5 67.3 118.3 67.6 118.3 67.9V72.5C118.3 72.8 118.6 73.1 118.9 73.1H120.6C122 73.1 122.7 72.4 122.7 71.5C122.7 70.9 122.4 70.4 121.7 70.2C122.3 69.8 122.5 69.4 122.5 68.9ZM125.6 70.7H126L127.4 72.7C127.5 72.9 127.7 73.1 128 73.1C128.3 73.1 128.6 72.9 128.6 72.6C128.6 72.5 128.6 72.4 128.5 72.3L127 70.2L128.5 68.1C128.6 68 128.6 67.9 128.6 67.8C128.6 67.5 128.3 67.3 128 67.3C127.7 67.3 127.5 67.5 127.3 67.7L126 69.5H125.6V67.7C125.6 67.4 125.3 67.1 125 67.1C124.6 67.1 124.4 67.4 124.4 67.7V72.5C124.4 72.8 124.7 73.1 125 73.1C125.3 73.1 125.6 72.8 125.6 72.5V70.7ZM131.8 70.5C132.1 70.5 132.5 70.5 132.8 70.6V71.6C132.4 71.9 132.1 72 131.7 72C131.1 72 130.8 71.7 130.8 71.3C130.9 70.9 131 70.5 131.8 70.5ZM132.8 69.7C132.5 69.6 132.1 69.6 131.8 69.6C130.4 69.6 129.7 70.2 129.7 71.3C129.7 72.4 130.3 73.1 131.6 73.1C132.2 73.1 132.7 72.9 133.2 72.5C133.4 72.9 133.7 73 134.1 73C134.5 73 134.8 72.8 134.8 72.5C134.8 72.3 134.7 72.1 134.5 72.1C134.3 72.1 134.2 72 134.2 71.7V69.4C134.2 67.9 133.6 67.1 132 67.1C131.1 67.1 130.2 67.3 130.2 67.9C130.2 68.1 130.3 68.4 130.7 68.4C130.8 68.4 130.9 68.4 131 68.3L131.2 68.2C131.4 68.1 131.6 68.1 131.9 68.1C132.6 68.1 133 68.4 133 69.1V69.7H132.8ZM139.6 71C139.6 72.2 140.3 73.2 141.8 73.2C142.4 73.2 143.6 73 143.6 72.4C143.6 72.2 143.4 71.9 143 71.9C142.9 71.9 142.8 71.9 142.7 72C142.4 72.1 142.2 72.2 141.8 72.2C141 72.2 140.7 71.8 140.7 71.1V69.5C140.7 68.8 141 68.4 141.8 68.4C142.2 68.4 142.4 68.5 142.7 68.6C142.8 68.6 142.9 68.6 143 68.6C143.4 68.6 143.6 68.4 143.6 68.1C143.6 67.4 142.4 67.3 141.8 67.3C140.3 67.3 139.6 68.2 139.6 69.5V71ZM149.2 67.9C149.2 67.8 149.2 67.8 149.2 67.7C149.2 67.4 148.9 67.1 148.6 67.1C148.4 67.1 148.1 67.2 148 67.5C147.6 68.8 147.3 70 146.9 71.3C146.5 70.1 146.1 69 145.7 67.8L145.6 67.5C145.5 67.2 145.3 67.1 145 67.1C144.6 67.1 144.4 67.3 144.4 67.6C144.4 67.7 144.4 67.7 144.4 67.8L146.2 72.7C145.9 73.7 145.6 74.1 145 74.1C144.6 74.1 144.4 74.4 144.4 74.7C144.4 75 144.7 75.3 145 75.3C146.6 75.3 147.1 74 147.6 72.2L149.2 67.9ZM157.3 67.7C157.3 67.4 157 67.1 156.7 67.1C156.3 67.1 156.1 67.3 156.1 67.7V72H154.6V67.7C154.6 67.4 154.3 67.1 154 67.1C153.6 67.1 153.4 67.4 153.4 67.7V72H151.9V67.7C151.9 67.4 151.6 67.1 151.3 67.1C150.9 67.1 150.7 67.3 150.7 67.7V72.4C150.7 72.7 151 73 151.3 73H156.8C157.1 73 157.4 72.7 157.4 72.4V67.7H157.3ZM160 73.2C160.2 73.2 160.5 73.1 160.6 72.9L162.8 69.4V72.6C162.8 72.9 163.1 73.2 163.4 73.2C163.7 73.2 164 72.9 164 72.6V67.9C164 67.5 163.7 67.3 163.3 67.3C163 67.3 162.8 67.4 162.7 67.6L160.6 71V67.7C160.6 67.4 160.3 67.1 160 67.1C159.6 67.1 159.4 67.4 159.4 67.7V72.5C159.3 72.9 159.6 73.2 160 73.2ZM170.4 73.2C170.6 73.2 170.9 73.1 171 72.9L173.2 69.4V72.6C173.2 72.9 173.5 73.2 173.8 73.2C174.1 73.2 174.4 72.9 174.4 72.6V67.9C174.4 67.5 174.1 67.3 173.7 67.3C173.4 67.3 173.2 67.4 173.1 67.6L171 71V67.7C171 67.4 170.7 67.1 170.4 67.1C170 67.1 169.8 67.4 169.8 67.7V72.5C169.8 72.9 170 73.2 170.4 73.2ZM181.5 68.9C181.5 68.8 181.5 68.7 181.5 68.6C181.9 68.4 182.2 68.3 182.6 68.3C183.2 68.3 183.5 68.7 183.5 69.4V70.8C183.5 71.7 183.2 72.1 182.5 72.1C182.2 72.1 181.9 72 181.5 71.9V68.9ZM182.6 73.1C184.2 73.1 184.7 72.1 184.7 70.7V69.3C184.7 68 184 67.1 182.7 67.1C182.1 67.1 181.6 67.3 181.1 67.6C181 67.4 180.8 67.3 180.6 67.3C180.3 67.3 180 67.5 180 67.9C180 68 180 68.1 180.1 68.2C180.2 68.4 180.3 68.5 180.3 68.9V75C180.3 75.3 180.5 75.6 180.9 75.6C181.3 75.6 181.5 75.3 181.5 75V73C181.9 73.1 182.3 73.1 182.6 73.1ZM188.5 72C187.8 72 187.4 71.6 187.4 71V69.2C187.4 68.6 187.8 68.2 188.5 68.2C189.2 68.2 189.6 68.6 189.6 69.2V71C189.6 71.7 189.2 72 188.5 72ZM188.5 73.1C190 73.1 190.8 72.2 190.8 71V69.2C190.8 68 190 67.1 188.5 67.1C187 67.1 186.2 68 186.2 69.2V71C186.2 72.2 187 73.1 188.5 73.1ZM197.3 72.5V67.8C197.3 67.5 197.1 67.2 196.7 67.2H194C193.7 67.2 193.5 67.4 193.4 67.8L193.1 71.2C193 71.8 192.9 72 192.6 72C192.5 72 192.5 72 192.4 72C192.1 72 191.9 72.2 191.9 72.6C191.9 73 192.3 73.1 192.8 73.1C193.8 73.1 194.3 72.3 194.4 71.1C194.5 70.1 194.5 69.2 194.6 68.3H196.1V72.6C196.1 72.9 196.4 73.2 196.7 73.2C197 73.1 197.3 72.9 197.3 72.5ZM204 72.5V67.8C204 67.5 203.8 67.2 203.4 67.2H200.6C200.3 67.2 200.1 67.4 200 67.8L199.7 71.2C199.6 71.8 199.5 72 199.2 72C199.1 72 199.1 72 199 72C198.7 72 198.5 72.2 198.5 72.6C198.5 73 198.9 73.1 199.4 73.1C200.4 73.1 200.9 72.3 200.9 71.1C201 70.1 201 69.2 201.1 68.3H202.6V72.6C202.6 72.9 202.9 73.2 203.2 73.2C203.7 73.1 204 72.9 204 72.5ZM208 72C207.3 72 206.9 71.6 206.9 71V69.2C206.9 68.6 207.3 68.2 208 68.2C208.7 68.2 209.1 68.6 209.1 69.2V71C209.1 71.7 208.8 72 208 72ZM208 73.1C209.5 73.1 210.3 72.2 210.3 71V69.2C210.3 68 209.5 67.1 208 67.1C206.5 67.1 205.7 68 205.7 69.2V71C205.7 72.2 206.5 73.1 208 73.1ZM213.3 68.2H214.2C214.8 68.2 215.1 68.4 215.1 68.9C215.1 69.2 215 69.6 214.2 69.6H213.3V68.2ZM215.2 71.3C215.2 71.8 214.9 72 214.3 72H213.3V70.5H214.2C215 70.6 215.2 70.9 215.2 71.3ZM216.3 68.9C216.3 68 215.6 67.3 214.2 67.3H212.7C212.3 67.3 212.1 67.6 212.1 67.9V72.5C212.1 72.8 212.4 73.1 212.7 73.1H214.4C215.8 73.1 216.5 72.4 216.5 71.5C216.5 70.9 216.2 70.4 215.5 70.2C216.1 69.8 216.3 69.4 216.3 68.9ZM216.9 53.5C216.9 55.6 216.1 57.2 214.6 58.4C213.2 59.5 211.4 60 209.3 60C208.2 60 207.1 59.8 206.1 59.6C204.9 59.2 204 58.7 203.4 58.1C203.1 57.7 202.9 57.3 202.9 57C202.9 56.4 203.1 55.9 203.5 55.5C203.9 55.2 204.4 55 205.1 55C205.4 55 206.1 55.2 207.2 55.5C208.3 55.8 209.2 56 209.9 56C210.5 56 211.1 55.8 211.5 55.5C211.9 55.1 212.1 54.7 212.1 54.1C212.1 53.3 211.8 52.7 211.2 52.4C210.7 52.1 209.8 51.8 208.7 51.4C206.9 50.9 205.7 50.3 204.8 49.6C203.7 48.7 203.1 47.4 203.1 45.9C203.1 44 203.8 42.4 205.2 41.3C206.5 40.2 208.2 39.7 210.2 39.7C211.9 39.7 213.2 40 214.1 40.6C215.1 41.2 215.5 41.8 215.5 42.6C215.5 43.9 214.8 44.5 213.5 44.5C213.1 44.5 212.5 44.4 211.8 44.2C211.1 44 210.5 43.9 210 43.9C209.4 43.9 208.9 44 208.5 44.3C208 44.6 207.8 45 207.8 45.6C207.8 45.9 207.9 46.2 208 46.5C208.2 46.8 208.7 47.1 209.5 47.4C210.1 47.6 210.7 47.8 211.3 48C213 48.6 214.3 49.3 215.1 50.1C216.4 50.6 216.9 51.9 216.9 53.5ZM193.2 42.7C193.2 40.4 193.8 39.5 195.5 39.5C197.2 39.5 197.8 40.4 197.8 42.8V55.7C199.4 55.7 201 55.9 201 57.8C201 59.3 200 59.9 197.8 59.9H196.3C195.1 59.9 194.3 59.7 193.9 59.3C193.4 58.9 193.2 58.1 193.2 57V42.7ZM182.3 42.7C182.3 40.4 182.9 39.5 184.6 39.5C186.3 39.5 186.9 40.4 186.9 42.8V55.7C189.2 55.7 190.1 56.3 190.1 57.8C190.1 59.3 189.1 59.9 186.9 59.9H185.4C184.2 59.9 183.4 59.7 183 59.3C182.5 58.9 182.3 58.1 182.3 57V42.7ZM164.4 49.9C164.4 51.5 164.8 52.9 165.5 54C166.4 55.3 167.6 55.9 169.1 55.9C170.7 55.9 171.9 55.3 172.8 54C173.6 52.9 173.9 51.5 173.9 49.9C173.9 48.2 173.5 46.8 172.8 45.7C171.9 44.4 170.7 43.7 169.1 43.7C167.5 43.7 166.3 44.4 165.4 45.7C164.8 46.8 164.4 48.2 164.4 49.9ZM159.6 49.8C159.6 46.8 160.5 44.4 162.1 42.5C163.9 40.5 166.2 39.5 169.2 39.5C172.2 39.5 174.6 40.5 176.3 42.4C178 44.3 178.8 46.7 178.8 49.8C178.8 52.8 178 55.3 176.3 57.1C174.5 59 172.2 60 169.2 60C166.2 60 163.9 59 162.1 57.1C160.4 55.2 159.6 52.8 159.6 49.8ZM158 57.7C158 59.2 157 59.8 154.8 59.8H145.6C143.5 59.8 142.4 59 142.4 57.5C142.4 56.8 142.8 55.8 143.7 54.7C146.4 51.1 149.2 47.5 151.9 43.8H146C143.7 43.8 142.8 43.2 142.8 41.7C142.8 40.2 143.8 39.6 146 39.6H154C155.1 39.6 155.9 39.7 156.4 39.9C157.2 40.2 157.6 40.8 157.6 41.7C157.6 42.4 157.1 43.4 156.3 44.6C153.6 48.2 151 51.8 148.3 55.5H154.8C157.1 55.6 158 56.2 158 57.7ZM141 57.7C141 59.1 139.9 59.8 137.8 59.8H128.5C126.4 59.8 125.3 59 125.3 57.5C125.3 56.8 125.7 55.8 126.6 54.7L134.8 43.8H128.9C126.6 43.8 125.7 43.2 125.7 41.7C125.7 40.2 126.6 39.6 128.9 39.6H137C138.1 39.6 138.9 39.7 139.4 39.9C140.2 40.2 140.6 40.8 140.6 41.7C140.6 42.4 140.1 43.4 139.3 44.6L131.3 55.5H137.8C139.9 55.6 141 56.3 141 57.7ZM105.8 50.9V42.7C105.8 40.4 106.4 39.5 108.1 39.5C109.8 39.5 110.4 40.4 110.4 42.7V50.3C110.4 53.9 111.7 55.6 114.4 55.6C117.1 55.6 118.4 53.8 118.4 50.3V42.7C118.4 40.4 119 39.5 120.7 39.5C122.4 39.5 123 40.4 123 42.7V50.8C123 53.6 122.3 55.8 120.8 57.5C119.3 59.2 117.1 60.1 114.4 60.1C111.6 60.1 109.5 59.2 108 57.5C106.5 55.9 105.8 53.7 105.8 50.9ZM92.7 43.7V47.6H94.7C95.6 47.6 96.2 47.5 96.6 47.3C97.1 47 97.3 46.4 97.3 45.6C97.3 44.3 96.4 43.6 94.6 43.6H92.7V43.7ZM92.7 51.2V55.9H95C96 55.9 96.7 55.8 97.2 55.5C97.8 55.2 98.1 54.5 98.1 53.6C98.1 52.6 97.8 51.9 97.2 51.5C96.8 51.2 96 51.1 94.9 51.1H92.7V51.2ZM91.2 59.8C90 59.8 89.2 59.6 88.8 59.2C88.3 58.8 88.1 58 88.1 56.9V43C88.1 41.8 88.3 41 88.8 40.5C89.3 40 90.1 39.7 91.3 39.7H95C96.8 39.7 98.4 40.1 99.6 40.8C101.2 41.8 102 43.1 102 44.8C102 47 101.2 48.5 99.6 49.2V49.3C100.8 49.7 101.6 50.2 102.1 50.9C102.6 51.6 102.9 52.6 102.9 53.8C102.9 55.8 102.2 57.4 100.8 58.5C99.6 59.4 97.9 59.9 95.8 59.9H91.2V59.8ZM92.8 67.2H90C89.8 67.2 89.5 67.4 89.4 67.8V70C89.4 70.9 89.2 71.6 88.9 72H88.7C88.3 72 88.1 72.3 88.1 72.6V74.1C88.1 74.4 88.4 74.7 88.7 74.7C89.1 74.7 89.3 74.3 89.3 73.9V73H92.8V73.8C92.8 74.2 93 74.6 93.4 74.6C93.7 74.6 94 74.3 94 74V72.5C94 72.2 93.8 71.9 93.4 71.9H93.2V67.7C93.3 67.6 93.2 67.2 92.8 67.2Z" fill="#292927"/>
</g>
<defs>
<clipPath id="clip0_1_11">
<rect width="72.3" height="76" fill="white"/>
</clipPath>
<clipPath id="clip1_1_11">
<rect width="129" height="37" fill="white" transform="translate(88 39)"/>
</clipPath>
</defs>
</svg>
