<?xml version="1.0" encoding="utf-8"?>
<!-- Generator: Adobe Illustrator 17.1.0, SVG Export Plug-In . SVG Version: 6.00 Build 0)  -->
<!DOCTYPE svg PUBLIC "-//W3C//DTD SVG 1.1//EN" "http://www.w3.org/Graphics/SVG/1.1/DTD/svg11.dtd">
<svg version="1.1" id="Layer_1" xmlns="http://www.w3.org/2000/svg" xmlns:xlink="http://www.w3.org/1999/xlink" x="0px" y="0px"
	 viewBox="0 0 100 100" enable-background="new 0 0 100 100" xml:space="preserve">
<g>
	<path fill="#6D6E71" d="M76,81.9H24c-1.7,0-3-1.3-3-3c0-15.1,13-27.5,29-27.5s29,12.3,29,27.5C79,80.5,77.7,81.9,76,81.9z
		 M27.2,75.9h45.6C71.2,65.5,61.6,57.4,50,57.4S28.8,65.5,27.2,75.9z"/>
	<path fill="#6D6E71" d="M50,56.2c-10.5,0-19.1-8.5-19.1-19.1c0-10.5,8.5-19.1,19.1-19.1s19.1,8.5,19.1,19.1
		C69.1,47.7,60.5,56.2,50,56.2z M50,24.1c-7.2,0-13.1,5.9-13.1,13.1S42.8,50.2,50,50.2s13.1-5.9,13.1-13.1S57.2,24.1,50,24.1z"/>
</g>
</svg>
